<?xml version="1.0" encoding="UTF-8"?>
<svg xmlns="http://www.w3.org/2000/svg" xmlns:xlink="http://www.w3.org/1999/xlink" viewBox="0 0 30 30" width="30px" height="30px">
<g id="surface328506671">
<path style=" stroke:none;fill-rule:nonzero;fill:rgb(20.392157%,28.627452%,36.862746%);fill-opacity:1;" d="M 15 1.199219 C 7.390625 1.199219 1.199219 7.390625 1.199219 15 C 1.199219 22.609375 7.390625 28.800781 15 28.800781 C 22.609375 28.800781 28.800781 22.609375 28.800781 15 C 28.800781 7.390625 22.609375 1.199219 15 1.199219 Z M 10.800781 21 L 8.398438 21 L 8.398438 12 L 10.800781 12 Z M 9.601562 10.199219 C 8.9375 10.199219 8.398438 9.664062 8.398438 9 C 8.398438 8.335938 8.9375 7.800781 9.601562 7.800781 C 10.261719 7.800781 10.800781 8.335938 10.800781 9 C 10.800781 9.664062 10.261719 10.199219 9.601562 10.199219 Z M 22.199219 21 L 19.800781 21 L 19.800781 16.5 C 19.800781 15.34375 18.855469 14.398438 17.699219 14.398438 C 16.546875 14.398438 15.601562 15.34375 15.601562 16.5 L 15.601562 21 L 13.199219 21 L 13.199219 12 L 15.601562 12 L 15.601562 13.089844 C 16.300781 12.417969 17.25 12 18.300781 12 C 20.453125 12 22.199219 13.746094 22.199219 15.898438 Z M 22.199219 21 "/>
</g>
</svg>
